<?xml version="1.0" encoding="UTF-8" standalone="no"?>
<svg
   xmlns:dc="http://purl.org/dc/elements/1.1/"
   xmlns:cc="http://creativecommons.org/ns#"
   xmlns:rdf="http://www.w3.org/1999/02/22-rdf-syntax-ns#"
   xmlns:svg="http://www.w3.org/2000/svg"
   xmlns="http://www.w3.org/2000/svg"
   id="svg10503"
   version="1.1"
   viewBox="0 0 8.2400303 7.3204365"
   height="7.3204365mm"
   width="8.2400303mm">
  <defs
     id="defs10497" />
  <metadata
     id="metadata10500">
    <rdf:RDF>
      <cc:Work
         rdf:about="">
        <dc:format>image/svg+xml</dc:format>
        <dc:type
           rdf:resource="http://purl.org/dc/dcmitype/StillImage" />
        <dc:title></dc:title>
      </cc:Work>
    </rdf:RDF>
  </metadata>
  <g
     transform="translate(134.15338,-199.05437)"
     id="layer1">
    <g
       id="g11063">
      <path
         class="fil9 str10"
         d="m -134.0615,205.67798 c -0.0773,0.13647 -0.0773,0.30218 0,0.43865 0.0773,0.14622 0.22217,0.22421 0.38639,0.22421 h 7.28348 c 0.16421,0 0.29945,-0.078 0.38639,-0.22421 0.0773,-0.13647 0.0773,-0.30218 0,-0.43865 l -3.64174,-6.37519 c -0.0869,-0.13647 -0.23184,-0.21446 -0.38639,-0.21446 -0.15456,0 -0.29946,0.078 -0.38639,0.21446 z"
         id="path3597"
         style="clip-rule:evenodd;fill:#ffffff;fill-rule:evenodd;stroke:#000000;stroke-width:0.06792653;stroke-miterlimit:4;stroke-dasharray:none;stroke-opacity:1;image-rendering:optimizeQuality;shape-rendering:geometricPrecision;text-rendering:geometricPrecision" />
      <path
         class="fil10"
         d="m -126.87462,205.70722 c 0.0386,0 0.0676,-0.0195 0.0869,-0.0487 0.0193,-0.0292 0.0193,-0.0682 0,-0.0975 l -3.15875,-5.50762 c -0.0193,-0.0292 -0.0483,-0.0487 -0.0869,-0.0487 -0.029,0 -0.0676,0.0195 -0.0869,0.0487 l -3.14909,5.50762 c -0.0193,0.0292 -0.0193,0.0682 0,0.0975 0.0193,0.0292 0.0483,0.0487 0.0869,0.0487 z m -7.09995,0.0195 c -0.058,0.10723 -0.058,0.23395 0,0.34118 0.058,0.10723 0.17388,0.17546 0.29946,0.17546 h 7.28348 c 0.12558,0 0.24149,-0.0682 0.29945,-0.17546 0.058,-0.10723 0.058,-0.23395 0,-0.34118 l -3.64174,-6.37519 c -0.0676,-0.10722 -0.18354,-0.16571 -0.29945,-0.16571 -0.12558,0 -0.23184,0.0585 -0.29946,0.16571 z"
         id="path3599"
         style="clip-rule:evenodd;fill:#e42426;fill-rule:evenodd;stroke-width:0.00970379;image-rendering:optimizeQuality;shape-rendering:geometricPrecision;text-rendering:geometricPrecision" />
      <path
         class="fil14"
         d="m -132.43386,205.45287 h 4.87248 v -0.75624 h -0.90843 c -0.27872,-0.332 -0.85681,-0.55334 -1.52781,-0.55334 -0.66068,0 -1.23877,0.22134 -1.52781,0.55334 h -0.90843 z"
         id="path3619-0"
         style="clip-rule:evenodd;display:inline;fill:#24221f;fill-rule:evenodd;stroke-width:0.00975719;image-rendering:optimizeQuality;shape-rendering:geometricPrecision;text-rendering:geometricPrecision" />
    </g>
  </g>
</svg>
