<?xml version="1.0" encoding="UTF-8" standalone="no"?>
<svg
   xmlns:dc="http://purl.org/dc/elements/1.1/"
   xmlns:cc="http://creativecommons.org/ns#"
   xmlns:rdf="http://www.w3.org/1999/02/22-rdf-syntax-ns#"
   xmlns:svg="http://www.w3.org/2000/svg"
   xmlns="http://www.w3.org/2000/svg"
   id="svg8402"
   version="1.1"
   viewBox="0 0 7.0000005 7.0000005"
   height="7.0000005mm"
   width="7.0000005mm">
  <defs
     id="defs8396" />
  <metadata
     id="metadata8399">
    <rdf:RDF>
      <cc:Work
         rdf:about="">
        <dc:format>image/svg+xml</dc:format>
        <dc:type
           rdf:resource="http://purl.org/dc/dcmitype/StillImage" />
        <dc:title></dc:title>
      </cc:Work>
    </rdf:RDF>
  </metadata>
  <g
     transform="translate(-307.94715,-139.28832)"
     id="layer1">
    <g
       id="g8968">
      <rect
         style="display:inline;opacity:1;fill:#ffffff;fill-opacity:1;stroke:#000000;stroke-width:0.22724752;stroke-linecap:butt;stroke-linejoin:round;stroke-miterlimit:4;stroke-dasharray:none;stroke-opacity:1;paint-order:stroke fill markers"
         id="rect1172"
         width="6.7727528"
         height="6.7727528"
         x="-314.83353"
         y="139.40195"
         ry="0.51795387"
         transform="scale(-1,1)" />
      <rect
         style="display:inline;opacity:1;fill:#0561ab;fill-opacity:1;stroke:none;stroke-width:0.30085862;stroke-linecap:butt;stroke-linejoin:round;stroke-miterlimit:4;stroke-dasharray:none;stroke-opacity:1;paint-order:stroke fill markers"
         id="rect1172-1"
         width="6.1991415"
         height="6.1991415"
         x="-314.55222"
         y="139.67664"
         ry="0.47408631"
         transform="scale(-1,1)" />
      <g
         style="display:inline"
         id="g8380"
         transform="matrix(-1,0,0,1,312.67972,125.50442)">
        <path
           class="fil4"
           d="m -1.7059848,19.877665 c -0.039487,0 -0.069103,-0.0098 -0.088847,-0.03917 -0.019744,-0.02938 -0.019744,-0.06854 0,-0.09792 l 2.9319349,-5.013366 c 0.019743,-0.03917 0.049359,-0.04896 0.078975,-0.04896 0.039487,0 0.069103,0.0098 0.088846,0.04896 l 2.922063,5.013366 c 0.019743,0.02938 0.019743,0.06854 0,0.09792 -0.019743,0.02937 -0.049359,0.03917 -0.078975,0.03917 z"
           id="path571-4"
           style="clip-rule:evenodd;display:inline;opacity:1;fill:#ffffff;fill-rule:evenodd;stroke-width:0.0098317;image-rendering:optimizeQuality;shape-rendering:geometricPrecision;text-rendering:geometricPrecision" />
        <path
           class="fil3"
           d="m 1.5813361,17.860569 0.888465,1.312091 c 0.019743,0.01958 0.078975,0.176251 -0.049359,0.254585 -0.128334,0.08813 -0.2566678,-0.02937 -0.296155,-0.07833 l -0.8094907,-1.16522 c 0,0 -0.039487,-0.08813 0.019743,-0.127292 0.049359,-0.03917 0.2467959,-0.195834 0.2467967,-0.195834 z m -1.25372301,-0.381878 0.5429508,-0.470003 0.009872,0.411253 -0.3158987,0.28396 c -0.236924,0.215418 -0.4343607,-0.04896 -0.2369241,-0.22521 z m 0.6120536,-0.871464 c 0,0 -0.00987,-0.117501 0.039487,-0.146876 L 1.3345401,16.205766 c 0,0 0.069103,-0.02938 0.1085903,0 l 0.7601313,0.528754 c 0,0 0.088846,0.03917 0.088846,0.156667 l 0.019743,0.695213 c 0,0 -0.019743,0.127293 -0.1579494,0.117501 -0.1283338,0 -0.1480775,-0.107709 -0.1480775,-0.137084 l -0.019742,-0.479795 c 0,0 -0.00987,-0.127293 -0.059231,-0.166459 L 1.5122332,16.646394 c 0,0 -0.039487,0.0098 -0.039487,0.04896 l 0.069103,0.881256 c 0.00987,0.04896 -0.00987,0.107709 -0.049359,0.137084 l -0.65154161,0.538545 c -0.0296157,0.02938 -0.1480777,0.06854 -0.2073087,0.274168 l -0.2467958,0.812714 c 0,0 -0.059231,0.186042 -0.2073086,0.176251 -0.1480775,-0.0098 -0.1974366,-0.146876 -0.1579493,-0.254585 l 0.296155,-0.930214 c 0.029615,-0.09792 0.069103,-0.176252 0.2171804,-0.303544 l 0.4639763,-0.401461 c 0,0 0.019743,-0.03917 0.019743,-0.05875 z M 0.83107659,15.77493 c 0.019743,-0.176251 0.1480776,-0.254585 0.34551421,-0.264376 0.1579493,0 0.2665396,0.08812 0.2764115,0.205626 0.019743,0.117501 0,0.176251 -0.059231,0.244793 -0.059231,0.06854 -0.167821,0.156668 -0.2270522,0.195835 -0.059231,0.03917 -0.18756471,0.06854 -0.24679571,-0.0098 -0.0691032,-0.07834 -0.1085905,-0.205628 -0.0888468,-0.372088 z m -1.5696216,3.280229 h 0.3751297 c 0.039487,0 0.039487,0.05875 0.029616,0.07833 l -0.2862837,0.636463 H -1.1827776 c -0.029615,0 -0.039487,-0.04896 -0.019744,-0.08813 z m 2.24090641,0.705005 c 0.019743,0 0.069103,0.0098 0.059231,-0.04896 l -0.10859,-0.616879 c 0,0 -0.00987,-0.03917 -0.039487,-0.03917 H 1.0087695 c -0.019743,0 -0.029615,0.03917 -0.029615,0.03917 l -0.1085906,0.626671 c -0.00987,0.04896 0.039488,0.03917 0.059231,0.03917 z m 1.66834,-0.705005 H 2.7856998 c -0.029616,0 -0.029616,0.05875 -0.019743,0.07833 l 0.2862829,0.636463 h 0.5626947 c 0.029616,0 0.039487,-0.04896 0.019743,-0.08813 z"
           id="path567-5"
           style="clip-rule:evenodd;display:inline;opacity:1;fill:#22201d;fill-rule:evenodd;stroke-width:0.0098317;image-rendering:optimizeQuality;shape-rendering:geometricPrecision;text-rendering:geometricPrecision" />
      </g>
    </g>
  </g>
</svg>
